<svg xmlns="http://www.w3.org/2000/svg" viewBox="0 0 64 64">
  <defs>
    <linearGradient id="g" x1="10" y1="8" x2="56" y2="58" gradientUnits="userSpaceOnUse">
      <stop stop-color="#7c3aed"/>
      <stop offset=".48" stop-color="#6366f1"/>
      <stop offset="1" stop-color="#ec4899"/>
    </linearGradient>
  </defs>
  <rect width="64" height="64" rx="18" fill="url(#g)"/>
  <path d="M18 22.5c0-3 2.4-5.5 5.5-5.5h17c3 0 5.5 2.4 5.5 5.5v18c0 3-2.4 5.5-5.5 5.5h-17c-3 0-5.5-2.4-5.5-5.5v-18Z" fill="#fff" fill-opacity=".16"/>
  <path d="M22.2 43 29 20.8h6.1L42 43h-5.3l-1.2-4.5h-7.2L27.1 43h-4.9Zm7.3-8.9h4.8L32 25.6h-.2l-2.3 8.5ZM44 43V20.8h5.1V43H44Z" fill="#fff"/>
</svg>
